<svg xmlns="http://www.w3.org/2000/svg" width="180" height="100" viewBox="0 0 180 100"><path d="M134.015,31.788a31.94,31.94,0,0,0-7.006.775l-.693-2.4a34.771,34.771,0,0,1,28.291,5.878,2.12,2.12,0,0,0,2.978-.477,2.157,2.157,0,0,0-.473-3,39.008,39.008,0,0,0-31.994-6.534L118.813,4.3H137a5.076,5.076,0,0,1,0,10.151h-3.823a2.147,2.147,0,0,0,0,4.293H137A9.372,9.372,0,0,0,137,0H115.971a2.122,2.122,0,0,0-1.706.86,2.165,2.165,0,0,0-.343,1.893l4.1,14.124h-42.3L74.393,4.388h6.959a2.148,2.148,0,0,0,0-4.3H66.076a6.07,6.07,0,0,0-6.039,6.087,2.131,2.131,0,1,0,4.262,0,1.787,1.787,0,0,1,1.777-1.791H70.1l1.5,14.05L57.418,33.883a39.051,39.051,0,0,0-25.183-9.2,2.147,2.147,0,0,0,0,4.293,34.833,34.833,0,0,1,22.282,8.064l-1.91,2.079a31.926,31.926,0,0,0-20.371-7.332,32.491,32.491,0,0,0,0,64.981A32.388,32.388,0,0,0,64.36,67h2.968a11.727,11.727,0,0,0,5.347,7.729l-2.206,5.878H67.85a2.148,2.148,0,0,0,0,4.3H75.67a2.148,2.148,0,0,0,0-4.3h-.646l1.634-4.358A11.568,11.568,0,0,0,90.28,64.759a11.651,11.651,0,0,0-2.27-6.937l31.839-34.655,1.178,4.072c-.148.052-.3.1-.446.154a2.16,2.16,0,0,0-1.279,2.755,2.132,2.132,0,0,0,2.734,1.287c.064-.025.126-.045.19-.067l.7,2.4a32.208,32.208,0,1,0,11.093-1.983M52.821,45.209a28.215,28.215,0,0,1,7.346,17.5H36.749ZM32.235,92.471a28.193,28.193,0,0,1,0-56.384A27.681,27.681,0,0,1,49.7,42.28L30.3,63.4a2.157,2.157,0,0,0-.385,2.318A2.125,2.125,0,0,0,31.868,67H60.076a28.1,28.1,0,0,1-27.84,25.471M67.3,62.707H64.434a32.507,32.507,0,0,0-8.709-20.658l1.908-2.079a35.352,35.352,0,0,1,3.648,4.574,2.121,2.121,0,0,0,2.958.576,2.161,2.161,0,0,0,.577-2.984,39.487,39.487,0,0,0-4.282-5.322L72.209,24.1l3.15,29.475A11.682,11.682,0,0,0,67.3,62.707m11.4,9.428a7.379,7.379,0,1,1,7.319-7.376A7.359,7.359,0,0,1,78.7,72.136M84.886,54.9l-.165-.107,2.408-6.4h2.039a2.148,2.148,0,0,0,0-4.3H81.352a2.148,2.148,0,0,0,0,4.3h1.218l-1.836,4.882c-.372-.067-.752-.114-1.134-.147L76.185,21.172h39.682Zm49.128,37.575a28.225,28.225,0,0,1-9.892-54.561l7.96,27.451a2.13,2.13,0,0,0,2.044,1.545,2.278,2.278,0,0,0,.6-.082,2.156,2.156,0,0,0,1.447-2.666L128.21,36.7a27.8,27.8,0,0,1,5.805-.614,28.193,28.193,0,0,1,0,56.384" fill="#fff"/></svg>