<svg xmlns="http://www.w3.org/2000/svg" xmlns:xlink="http://www.w3.org/1999/xlink" width="180" height="100.158" viewBox="0 0 180 100.158"><defs><clipPath id="a"><rect width="180" height="100.158" fill="#fff"/></clipPath></defs><g clip-path="url(#a)"><path d="M147.808,38.347a33.439,33.439,0,0,0-11.373,1.981c-.056-1.3-.036-2.068-.036-2.083a1.782,1.782,0,0,0-.02-.334l-1.02-7.757h15.786a2.016,2.016,0,0,0,1.869-1.217l7.876-18.911a1.872,1.872,0,0,0-.215-1.826,2.079,2.079,0,0,0-1.708-.825l-26.922.719c-1.765-2.974-5.141-6.047-11.021-6.885-4.894-.7-8.655-1.171-8.655-1.171A1.507,1.507,0,0,0,112.076,0a2.154,2.154,0,0,0-2.155,1.824,2.116,2.116,0,0,0,1.863,2.365c.018,0,3.725.473,8.6,1.179,7.979,1.138,8.872,7.363,8.91,7.556l1.095,12.889V25.9l.036.263H66.956l-.511-1.335c2.008.091,3.89.106,4.876.106h.986c3.342-.015,9.55-.015,9.55-5.488,0-3.436-4.328-3.909-9.313-4.435-3.232-.354-8.126-.877-9.112-2.263a11.6,11.6,0,0,0-9-4.858,5.376,5.376,0,0,0-.769.037,5.8,5.8,0,0,0-4.984,3.386c-.859,1.946-.328,4.188,1.588,6.659A16.815,16.815,0,0,0,61.04,24.339c.183.033.364.052.567.087L62.976,27.9,50.158,43.625A32.943,32.943,0,0,0,32.19,38.347C14.444,38.347,0,52.2,0,69.243A29.884,29.884,0,0,0,5.552,86.569,32.557,32.557,0,0,0,32.19,100.158c16.38,0,29.947-11.819,31.937-27.056l8.144.508a10.2,10.2,0,0,0,8.087,8.277v5H78.151a2.1,2.1,0,1,0,0,4.191h9.383a2.1,2.1,0,1,0,0-4.191H84.723v-5a10.12,10.12,0,0,0,8.2-9.749A9.666,9.666,0,0,0,91.5,67.105l16.633-14.642,8.673-7.645L131.21,32.14l.823,6.139c-.018.491-.018,1.927.127,3.961a31.058,31.058,0,0,0-6.28,4.435,30.312,30.312,0,0,0-6.226,7.61,29.685,29.685,0,0,0-4.037,14.957c0,17.046,14.444,30.915,32.19,30.915a32.3,32.3,0,0,0,29.142-17.832,29.252,29.252,0,0,0,2.8-9.276A28.891,28.891,0,0,0,180,69.243c0-17.042-14.444-30.9-32.192-30.9M61.881,20.219a12.6,12.6,0,0,1-8.109-4.734c-1.02-1.333-1.2-2.193-1.077-2.545a1.457,1.457,0,0,1,1.388-.839,1.7,1.7,0,0,1,.328-.021,7.241,7.241,0,0,1,5.4,3.034c2.119,2.982,7.268,3.527,12.235,4.05a39.292,39.292,0,0,1,5.276.808c-.4.508-1.642.756-5.039.756l-.531.019h-.509a67.6,67.6,0,0,1-9.367-.528M32.19,95.951A28.054,28.054,0,0,1,8.763,83.6a25.852,25.852,0,0,1-3.725-8.592,25.073,25.073,0,0,1-.656-5.77c0-14.729,12.47-26.7,27.808-26.7a28.349,28.349,0,0,1,15.265,4.4L43,52.411,30.51,67.735a2.087,2.087,0,0,0-.31.526,2.038,2.038,0,0,0,.036,1.631,2.13,2.13,0,0,0,1.845,1.229l27.663,1.718C57.919,85.867,46.25,95.951,32.19,95.951M36.5,67.192l3.049-3.735L50.834,49.605l.072-.089.056.056a26.648,26.648,0,0,1,5.9,7.363A25.709,25.709,0,0,1,60,68.647Zm36.062,2.226-8.2-.508a29.873,29.873,0,0,0-3.214-13.15,31.481,31.481,0,0,0-5.479-7.629c-.656-.665-1.35-1.314-2.063-1.927L64.783,32.492l4.84,12.449,3.25,8.364,4.073,10.452a10,10,0,0,0-4.383,5.662M84.723,77.5V72.137a2.184,2.184,0,0,0-4.365,0V77.5a5.763,5.763,0,0,1-3.833-5.366c0-.072.018-.141.018-.193a.527.527,0,0,1,.018-.176,5.8,5.8,0,0,1,3.872-5.032,6.228,6.228,0,0,1,2.1-.369,6.165,6.165,0,0,1,2.9.721,5.937,5.937,0,0,1,1.533,1.158.46.46,0,0,0,.091.1,5.579,5.579,0,0,1,1.5,3.789A5.765,5.765,0,0,1,84.723,77.5m26.53-33.491-9.019,7.942L88.54,64a10.608,10.608,0,0,0-5.954-1.82H82.55s0-.019-.018-.019H82.5a13.4,13.4,0,0,0-1.461.124l-3.743-9.61-3.268-8.416-5.4-13.906h58.155Zm30.412-17.724h-6.021c-.26-2.215-.515-4.429-.726-6.34l7.043-.166Zm4.7-14.712,9.655-.255-1.8,4.311-8.049.189Zm-.368,8.116,6.6-.155-2.811,6.75h-4.089Zm-3.664-8.008-.193,4.23-7.627.174c-.064-.661-.1-1.138-.109-1.331a1.843,1.843,0,0,0-.05-.545l-.555-2.3ZM175.6,69.822a25.331,25.331,0,0,1-2.1,9.625,27.867,27.867,0,0,1-25.693,16.5C132.47,95.951,120,83.972,120,69.243a25.719,25.719,0,0,1,4.125-13.954,27.111,27.111,0,0,1,6.868-7.3c.545-.4,1.113-.788,1.678-1.14.091.547.183,1.123.274,1.7a47.56,47.56,0,0,0,3.069,10.205c.127.317.274.651.421.964,4.747,10.223,10.023,13.328,10.242,13.45a2.219,2.219,0,0,0,1.115.3,2.178,2.178,0,0,0,1.861-1.018,2.038,2.038,0,0,0-.712-2.875c-.036-.017-3.4-2.1-6.993-8.592-.529-.912-1.022-1.9-1.533-2.982a39.968,39.968,0,0,1-2.666-7.925,50.232,50.232,0,0,1-.95-5.366,28.981,28.981,0,0,1,11.009-2.174c15.34,0,27.81,11.975,27.81,26.7,0,.2,0,.386-.018.58" transform="translate(0 -0.001)" fill="#fff"/></g></svg>