<svg xmlns="http://www.w3.org/2000/svg" xmlns:xlink="http://www.w3.org/1999/xlink" width="40" height="40" viewBox="0 0 40 40"><defs><clipPath id="a"><rect width="40" height="40" transform="translate(0.415 -0.073)" fill="#fda940"/></clipPath></defs><g transform="translate(-0.415 0.073)" clip-path="url(#a)"><path d="M14.062,40H7.657a1.942,1.942,0,0,1-1.94-1.94V23.611H1.979a1.943,1.943,0,0,1-1.94-1.94V15.48a1.942,1.942,0,0,1,1.94-1.94H5.717v-3.1A10.556,10.556,0,0,1,8.508,2.877,10.054,10.054,0,0,1,15.92,0l4.885.008a1.943,1.943,0,0,1,1.937,1.94V7.7a1.942,1.942,0,0,1-1.94,1.94H17.513c-1,0-1.259.2-1.313.263-.09.1-.2.391-.2,1.189v2.449h4.552a1.972,1.972,0,0,1,.96.244,1.947,1.947,0,0,1,1,1.7l0,6.191a1.942,1.942,0,0,1-1.94,1.94H16V38.06A1.943,1.943,0,0,1,14.063,40Zm-6-2.345h5.6V22.562a1.3,1.3,0,0,1,1.3-1.3h5.213l0-5.381H14.953a1.3,1.3,0,0,1-1.3-1.3v-3.5a3.994,3.994,0,0,1,.785-2.741,3.974,3.974,0,0,1,3.07-1.056H20.4V2.352l-4.479-.007c-4.846,0-7.857,3.1-7.857,8.094v4.15a1.3,1.3,0,0,1-1.3,1.3H2.384v5.381H6.766a1.3,1.3,0,0,1,1.3,1.3ZM20.8,2.353h0Zm0,0" transform="translate(8.609)" fill="#fda940"/></g></svg>