<svg xmlns="http://www.w3.org/2000/svg" xmlns:xlink="http://www.w3.org/1999/xlink" width="180" height="100" viewBox="0 0 180 100"><defs><clipPath id="a"><rect width="180" height="100" fill="#fff"/></clipPath></defs><g clip-path="url(#a)"><path d="M147.808,38.287a33.486,33.486,0,0,0-11.373,1.978c-.056-1.295-.036-2.064-.036-2.08a1.777,1.777,0,0,0-.02-.334l-1.02-7.745h15.786a2.017,2.017,0,0,0,1.869-1.216l7.876-18.881a1.867,1.867,0,0,0-.215-1.823,2.08,2.08,0,0,0-1.708-.824l-26.922.718c-1.765-2.969-5.141-6.037-11.021-6.874-4.894-.7-8.655-1.169-8.655-1.169A1.509,1.509,0,0,0,112.076,0a2.153,2.153,0,0,0-2.155,1.821,2.113,2.113,0,0,0,1.863,2.362c.018,0,3.725.473,8.6,1.177,7.979,1.136,8.872,7.351,8.91,7.544l1.095,12.869v.087l.036.262H66.956l-.511-1.333c2.008.091,3.89.106,4.876.106h.986c3.342-.015,9.55-.015,9.55-5.479,0-3.43-4.328-3.9-9.313-4.428-3.232-.353-8.126-.876-9.112-2.259a11.605,11.605,0,0,0-9-4.85,5.384,5.384,0,0,0-.769.037,5.8,5.8,0,0,0-4.984,3.38c-.859,1.943-.328,4.181,1.588,6.649A16.82,16.82,0,0,0,61.04,24.3c.183.033.364.052.567.087l1.368,3.467-12.818,15.7A32.98,32.98,0,0,0,32.19,38.287C14.444,38.287,0,52.118,0,69.134a29.805,29.805,0,0,0,5.552,17.3A32.573,32.573,0,0,0,32.19,100c16.38,0,29.947-11.8,31.937-27.013l8.144.507a10.187,10.187,0,0,0,8.087,8.264v4.989H78.151a2.094,2.094,0,1,0,0,4.185h9.383a2.095,2.095,0,1,0,0-4.185H84.723V81.758a10.109,10.109,0,0,0,8.2-9.734A9.639,9.639,0,0,0,91.5,67l16.633-14.619,8.673-7.633L131.21,32.09l.823,6.13c-.018.49-.018,1.924.127,3.955a31.058,31.058,0,0,0-6.28,4.428,30.274,30.274,0,0,0-6.226,7.6,29.6,29.6,0,0,0-4.037,14.933c0,17.019,14.444,30.866,32.19,30.866a32.3,32.3,0,0,0,29.142-17.8,29.172,29.172,0,0,0,2.8-9.261,28.8,28.8,0,0,0,.256-3.8c0-17.015-14.444-30.847-32.192-30.847m-85.926-18.1a12.6,12.6,0,0,1-8.109-4.727c-1.02-1.331-1.2-2.19-1.077-2.541a1.457,1.457,0,0,1,1.388-.837,1.7,1.7,0,0,1,.328-.021,7.244,7.244,0,0,1,5.4,3.029c2.119,2.977,7.268,3.521,12.235,4.044a39.35,39.35,0,0,1,5.276.806c-.4.507-1.642.754-5.039.754l-.531.019h-.509a67.71,67.71,0,0,1-9.367-.527M32.19,95.8A28.066,28.066,0,0,1,8.763,83.473a25.791,25.791,0,0,1-3.725-8.578,25,25,0,0,1-.656-5.761c0-14.706,12.47-26.662,27.808-26.662a28.381,28.381,0,0,1,15.265,4.393L43,52.329l-12.49,15.3a2.083,2.083,0,0,0-.31.525,2.031,2.031,0,0,0,.036,1.628,2.13,2.13,0,0,0,1.845,1.227l27.663,1.715C57.919,85.732,46.25,95.8,32.19,95.8M36.5,67.087l3.049-3.729,11.285-13.83.072-.089.056.056a26.614,26.614,0,0,1,5.9,7.351A25.637,25.637,0,0,1,60,68.539Zm36.062,2.223-8.2-.507a29.788,29.788,0,0,0-3.214-13.129,31.433,31.433,0,0,0-5.479-7.617c-.656-.664-1.35-1.312-2.063-1.924L64.783,32.441l4.84,12.429,3.25,8.35,4.073,10.436a9.986,9.986,0,0,0-4.383,5.653m12.16,8.073V72.024a2.184,2.184,0,0,0-4.365,0v5.358a5.755,5.755,0,0,1-3.833-5.358c0-.071.018-.141.018-.193a.526.526,0,0,1,.018-.176,5.789,5.789,0,0,1,3.872-5.024,6.237,6.237,0,0,1,2.1-.369,6.173,6.173,0,0,1,2.9.72,5.937,5.937,0,0,1,1.533,1.156.459.459,0,0,0,.091.1,5.565,5.565,0,0,1,1.5,3.784,5.757,5.757,0,0,1-3.835,5.358m26.53-33.438-9.019,7.93L88.54,63.9a10.62,10.62,0,0,0-5.954-1.817H82.55s0-.019-.018-.019H82.5a13.418,13.418,0,0,0-1.461.123l-3.743-9.595-3.268-8.4L68.619,30.3h58.155Zm30.412-17.7h-6.021c-.26-2.211-.515-4.422-.726-6.33l7.043-.166Zm4.7-14.688,9.655-.255-1.8,4.3-8.049.189Zm-.368,8.1,6.6-.154-2.811,6.739h-4.089Zm-3.664-8-.193,4.223-7.627.174c-.064-.66-.1-1.136-.109-1.329a1.838,1.838,0,0,0-.05-.544l-.555-2.3ZM175.6,69.713a25.257,25.257,0,0,1-2.1,9.61A27.869,27.869,0,0,1,147.808,95.8C132.47,95.8,120,83.839,120,69.134A25.649,25.649,0,0,1,124.125,55.2a27.086,27.086,0,0,1,6.868-7.285c.545-.4,1.113-.787,1.678-1.138.091.546.183,1.121.274,1.7a47.43,47.43,0,0,0,3.069,10.189c.127.316.274.65.421.963,4.747,10.206,10.023,13.307,10.242,13.429a2.222,2.222,0,0,0,1.115.3,2.178,2.178,0,0,0,1.861-1.017,2.033,2.033,0,0,0-.712-2.871c-.036-.017-3.4-2.1-6.993-8.578-.529-.911-1.022-1.893-1.533-2.977A39.862,39.862,0,0,1,137.748,50a50.081,50.081,0,0,1-.95-5.358,29.021,29.021,0,0,1,11.009-2.171c15.34,0,27.81,11.956,27.81,26.662,0,.195,0,.386-.018.579" transform="translate(0 -0.001)" fill="#fff"/></g></svg>