<svg xmlns="http://www.w3.org/2000/svg" width="123.467" height="100" viewBox="0 0 123.467 100"><path d="M87.2,23.521V20.64a6.22,6.22,0,0,0,2.266.427h4.267a2,2,0,0,0,2-2V10.532a2,2,0,0,0-2-2H89.468a6.22,6.22,0,0,0-2.266.427V8.4A8.411,8.411,0,0,0,78.8,0H74.534a2,2,0,0,0,0,4H78.8a4.4,4.4,0,0,1,4.4,4.4v4.435A65.406,65.406,0,0,0,45.785,25.858q-1.835,1.369-3.568,2.866L36.695,23.2h5.841a2,2,0,0,0,0-4H30.251a4.372,4.372,0,0,1-3.112-1.287l-2.39-2.393a2,2,0,0,0-2.83,2.83l2.393,2.393a8.352,8.352,0,0,0,5.94,2.459h.788l8.223,8.226a66.65,66.65,0,0,0-16.6,26.229c-.483-.031-.969-.053-1.46-.053a21.2,21.2,0,1,0,5.467.717A62.575,62.575,0,0,1,48.178,29.061,61.41,61.41,0,0,1,83.2,16.836v6.685a38.266,38.266,0,1,0,4,0M38.4,78.8a17.09,17.09,0,0,1-1.409,6.81l-9.65-5.574a6.191,6.191,0,0,0,0-2.472l9.65-5.571A17.068,17.068,0,0,1,38.4,78.8M4,78.8a17.067,17.067,0,0,1,1.406-6.807l9.652,5.571a6.191,6.191,0,0,0,0,2.472L5.406,85.61A17.088,17.088,0,0,1,4,78.8m19.465,0A2.266,2.266,0,1,1,21.2,76.533,2.268,2.268,0,0,1,23.465,78.8M19.2,61.718V72.863A6.224,6.224,0,0,0,17.062,74.1L7.41,68.531A17.235,17.235,0,0,1,19.2,61.718M7.41,89.071,17.062,83.5A6.265,6.265,0,0,0,19.2,84.738V95.881A17.2,17.2,0,0,1,7.41,89.071M23.2,95.881V84.738A6.289,6.289,0,0,0,25.339,83.5l9.65,5.571A17.194,17.194,0,0,1,23.2,95.881m11.788-27.35L25.339,74.1A6.248,6.248,0,0,0,23.2,72.863V61.718a17.224,17.224,0,0,1,11.788,6.812m75.8,15.966L92.384,66.087a8.357,8.357,0,0,0,.974-2.355h26.051A34.135,34.135,0,0,1,110.792,84.5m-59.8-20.764H77.044a8.438,8.438,0,0,0,.976,2.355L59.613,84.5a34.123,34.123,0,0,1-8.62-20.764m8.62-24.759L78.02,57.38a8.438,8.438,0,0,0-.976,2.355H50.993a34.11,34.11,0,0,1,8.62-20.762M85.2,57.335a4.4,4.4,0,1,1-4.4,4.4,4.406,4.406,0,0,1,4.4-4.4M80.848,68.917a8.314,8.314,0,0,0,2.355.974V95.942a34.15,34.15,0,0,1-20.764-8.617Zm6.354.974a8.329,8.329,0,0,0,2.352-.974l18.41,18.407A34.15,34.15,0,0,1,87.2,95.942Zm6.156-10.156a8.357,8.357,0,0,0-.974-2.355l18.407-18.407a34.122,34.122,0,0,1,8.617,20.762Zm14.606-23.592-18.41,18.41a8.3,8.3,0,0,0-2.352-.976V27.526a34.15,34.15,0,0,1,20.762,8.617m-18.5-23.61h2.268v4.534H89.468a2.267,2.267,0,0,1,0-4.534M83.2,53.576a8.334,8.334,0,0,0-2.352.976l-18.41-18.41A34.133,34.133,0,0,1,83.2,27.528V53.576Z" fill="#fff"/></svg>