<svg xmlns="http://www.w3.org/2000/svg" xmlns:xlink="http://www.w3.org/1999/xlink" width="40" height="40" viewBox="0 0 40 40"><defs><clipPath id="a"><rect width="40" height="40" transform="translate(0 -0.073)" fill="#fda940"/></clipPath></defs><g transform="translate(0 0.073)" clip-path="url(#a)"><g transform="translate(0 0)"><path d="M29.172,0H10.828A10.84,10.84,0,0,0,0,10.828V29.173A10.84,10.84,0,0,0,10.828,40H29.173A10.84,10.84,0,0,0,40,29.173V10.828A10.84,10.84,0,0,0,29.172,0Zm8.483,29.173a8.492,8.492,0,0,1-8.483,8.482H10.828a8.492,8.492,0,0,1-8.483-8.482V10.828a8.492,8.492,0,0,1,8.483-8.483H29.173a8.492,8.492,0,0,1,8.482,8.483Zm0,0" transform="translate(0 0)" fill="#fda940"/><path d="M20,9.063A10.937,10.937,0,1,0,30.937,20,10.949,10.949,0,0,0,20,9.063Zm0,19.529A8.592,8.592,0,1,1,28.592,20,8.6,8.6,0,0,1,20,28.592Zm0,0" transform="translate(0 0)" fill="#fda940"/><path d="M31.2,5.179A3.232,3.232,0,1,0,34.431,8.41,3.235,3.235,0,0,0,31.2,5.179Zm0,4.119a.887.887,0,1,1,.887-.887A.888.888,0,0,1,31.2,9.3Zm0,0" transform="translate(0 0)" fill="#fda940"/></g></g></svg>