<svg xmlns="http://www.w3.org/2000/svg" xmlns:xlink="http://www.w3.org/1999/xlink" width="40" height="40" viewBox="0 0 40 40"><defs><clipPath id="a"><rect width="40" height="40" transform="translate(0.415 -0.073)" fill="#fda940"/></clipPath></defs><g transform="translate(-0.415 0.073)" clip-path="url(#a)"><g transform="translate(2.183)"><path d="M8.153,11.846H1.41A1.372,1.372,0,0,0,.039,13.217V38.629A1.372,1.372,0,0,0,1.41,40H8.153a1.372,1.372,0,0,0,1.371-1.371V13.217A1.372,1.372,0,0,0,8.153,11.846ZM7.176,37.653H2.386V14.193h4.79Zm0,0" fill="#fda940"/><path d="M4.781,0A4.781,4.781,0,1,0,9.563,4.781,4.787,4.787,0,0,0,4.781,0Zm0,7.216A2.434,2.434,0,1,1,7.216,4.781,2.437,2.437,0,0,1,4.781,7.216Zm0,0" fill="#fda940"/><path d="M31.332,14.825A8.749,8.749,0,0,0,25.564,12.8a8.842,8.842,0,0,0-3.746.911v-.555a1.309,1.309,0,0,0-1.309-1.309H13.643a1.309,1.309,0,0,0-1.309,1.309V38.691A1.309,1.309,0,0,0,13.643,40h7a1.174,1.174,0,0,0,1.174-1.173V23.6a2.428,2.428,0,0,1,2.322-2.445,2.4,2.4,0,0,1,2.468,2.394v15.3A1.149,1.149,0,0,0,27.757,40h6.729a1.149,1.149,0,0,0,1.149-1.149V24.016a11.943,11.943,0,0,0-4.3-9.191Zm1.956,22.828H28.955v-14.1a4.742,4.742,0,0,0-9.485,0v14.1h-4.79V14.193h4.79V15.9h0a1.172,1.172,0,0,0,1.95.879,6.5,6.5,0,0,1,4.185-1.631,6.4,6.4,0,0,1,4.221,1.481,9.6,9.6,0,0,1,3.459,7.389Zm0,0" fill="#fda940"/></g></g></svg>