<svg xmlns="http://www.w3.org/2000/svg" xmlns:xlink="http://www.w3.org/1999/xlink" width="218.696" height="89.163" viewBox="0 0 218.696 89.163"><defs><clipPath id="a"><rect width="218.696" height="89.163" fill="#fff"/></clipPath></defs><g clip-path="url(#a)"><path d="M56.143,31.979l-1.318-2.031A65.714,65.714,0,0,0,32.048,52.79C31.813,41.3,27.012,29.948,16.329,29.948c-5.976,0-10.872,3-12.423,8.261C1.223,47.3,8.045,52.282,12.987,51.5l.8-2.444c-4.236.414-8.848-3.832-7.06-9.923,1.177-4.06,4.9-5.721,8.566-5.721,4.095,0,6.965,2.169,8.9,5.492L19.576,52.192c-1.835,5.306-4.94,7.29-7.671,7.29a5.168,5.168,0,0,1-3.012-.923L7.151,61.927a9.3,9.3,0,0,0,4.473,1.431c4.422,0,7.717-2.723,10.4-10.43l3.718-10.613c2.024,5.907,2.118,13.8.988,20.488h3.153a67.063,67.063,0,0,1,15.294-22.52L37.272,62.8H41.93l9.836-28.057a48.32,48.32,0,0,1,4.377-2.769" transform="translate(1.877 16.12)" fill="#fda940"/><path d="M86.19,40.508c-2.118,0-4.095,1.338-6.165,3.969l1.224-3.507H77.107l-2.865,8.193a21.171,21.171,0,0,1-7.631,6.159l.565-1.477,4.518-12.875H67.553l-.8,2.215a3.866,3.866,0,0,0-4-2.677c-3.859,0-7.907,3.184-9.554,7.614a9.235,9.235,0,0,0-.541,2.386c-1.782,1.941-3.892,3.427-5.248,3.427-.612,0-1.082-.323-.706-1.429l4.047-11.537H46.609l-.659,1.846a3.914,3.914,0,0,0-3.859-2.307c-3.859,0-7.907,3.323-9.6,7.984-1.6,4.43.094,9.09,4.281,9.09a6.742,6.742,0,0,0,5.412-3.09c-.14,1.984.753,3.09,2.541,3.09,2.706,0,5.7-2.08,8.119-4.569a4.585,4.585,0,0,0,4.589,3.738,7.452,7.452,0,0,0,5.506-2.721L62.234,56.1l-.565,1.524c-5.175,2.26-7.105,3.277-7.764,5.122-.66,1.752.329,3.6,2.728,3.6,3.53,0,6.307-2.584,8.848-8.262A29.676,29.676,0,0,0,72.75,53.43l-1.291,3.692H75.6l2.918-8.307c2.589-3.876,4.424-4.661,5.271-4.661.706,0,1.082.692.706,1.892a9.476,9.476,0,0,1-2.165,3.323h2.024a10.915,10.915,0,0,0,3.906-4.846c.706-2.169.047-4.015-2.071-4.015m-43.2,10.845a5.52,5.52,0,0,1-4.14,2.583c-2.447,0-3.247-2.352-2.119-5.767.894-2.63,2.918-4.846,5.506-4.846a2.624,2.624,0,0,1,2.777,2.215Zm13.978,13.2c-.706,0-1.365-.417-.941-1.477.424-1.109,2.306-1.938,4.612-2.909-1.13,2.538-2.353,4.386-3.671,4.386M64.211,50.43C63.035,51.861,61.34,53.2,59.6,53.2c-2.447,0-3.2-2.217-2.118-5.4.847-2.446,2.872-4.476,5.412-4.476,1.6,0,2.589.831,2.871,2.769Z" transform="translate(18.143 21.804)" fill="#fda940"/><path d="M173.7,53.058c-1.694-3.6-1.459-6.229-.094-7.8h-3.153c-1.835,3.046-3.859,6.045-5.789,8.767h0c-1.93,2.815-5.036,5.4-6.824,5.4-.61,0-1.082-.323-.706-1.431l4.048-11.537h-4.142l-.659,1.847A3.912,3.912,0,0,0,152.522,46c-3.859,0-7.908,3.323-9.6,7.984a10.1,10.1,0,0,0-.511,2.135c-1.759,1.883-3.809,3.309-5.136,3.309-.565,0-1.177-.368-.753-1.477l2.871-7.613c.706-1.894.659-4.338-1.93-4.338-2.541,0-5.318,1.707-7.671,5.075l7.295-20.765h-4.142l-8.536,24.313c-1.937,2.574-4.727,4.806-6.43,4.806-.565,0-1.13-.368-.706-1.477l2.871-7.613c.706-1.894.659-4.338-1.93-4.338-2.541,0-5.318,1.754-7.718,5.122l1.647-4.663H108l-2.865,8.193c-1.934,2.56-4.706,4.775-6.36,4.775-.612,0-1.082-.368-.706-1.477l4.047-11.491H97.975l-2.871,8.2c-1.934,2.557-4.7,4.767-6.352,4.767-.613,0-1.082-.323-.708-1.431l9.7-27.688H93.6l-8.471,24.18c-2.45,3.084-6.438,4.938-9.082,4.938-2.119,0-3.294-.785-3.812-1.938,4.893-.969,8.846-3.736,9.835-6.505C83.008,48.306,81.6,46,78.4,46c-4.565,0-8.566,3.323-10.26,7.984-1.6,4.43.424,9.09,5.881,9.09,3.354,0,6.909-1.915,9.73-4.45-.667,2.8.147,4.45,2.32,4.45,2.532,0,5.32-1.826,7.649-4.1-.53,2.6.284,4.1,2.374,4.1,2.469,0,5.18-1.734,7.471-3.929l-1.211,3.467h4.142l2.259-6.505c3.577-5.769,5.742-6.461,6.4-6.461.612,0,.988.508.565,1.614l-2.306,6.092c-1.412,3.693-.565,5.722,1.93,5.722,2.471,0,5.185-1.737,7.48-3.935L121.6,62.61h4.142l2.306-6.552c3.53-5.722,5.695-6.415,6.354-6.415.612,0,.988.508.565,1.614l-2.306,6.092c-1.412,3.693-.565,5.722,1.93,5.722,2.614,0,5.5-1.944,7.869-4.319.461,2.472,2.107,4.319,4.742,4.319a6.745,6.745,0,0,0,5.414-3.092c-.141,1.984.753,3.092,2.54,3.092,2.461,0,5.163-1.72,7.449-3.9a6.475,6.475,0,0,0,6.3,3.9c3.577,0,6.165-1.846,6.165-5.122a11.978,11.978,0,0,0-1.365-4.892m-101.327.6c.753-2.263,2.918-5.032,4.987-5.032,2.308,0,1.694,5.261-5.364,6.738a7.989,7.989,0,0,1,.377-1.706m81.041,3.183c-1.177,1.571-2.634,2.584-4.14,2.584-2.447,0-3.247-2.352-2.118-5.767.893-2.63,2.916-4.846,5.5-4.846a2.625,2.625,0,0,1,2.777,2.215Zm13.98,2.584a3.09,3.09,0,0,1-3.136-2c.548-.631,1.051-1.269,1.5-1.9.118-.157.229-.308.317-.443,1.553-2.169,2.118-3,3.012-4.384a12.257,12.257,0,0,0,1.035,3.46,6.051,6.051,0,0,1,.612,2.354c0,1.754-1.271,2.907-3.341,2.907" transform="translate(38.454 16.314)" fill="#fda940"/><path d="M89.9,40.212l2.623,1.418-.5-3L94.151,36.5l-2.94-.431L89.9,33.326l-1.316,2.74-2.935.437,2.124,2.129-.5,3Z" transform="translate(48.719 17.938)" fill="#fda940"/><path d="M148.892,27.558a1.7,1.7,0,0,0,2.339-.365,1.622,1.622,0,0,0-.372-2.294,31.343,31.343,0,0,0-25.141-4.995l-4.954-16.62H135.05a3.924,3.924,0,0,1,3.958,3.88,3.924,3.924,0,0,1-3.958,3.881h-3a1.642,1.642,0,1,0,0,3.283h3a7.243,7.243,0,0,0,7.307-7.164A7.245,7.245,0,0,0,135.05,0H118.529a1.684,1.684,0,0,0-1.34.657,1.614,1.614,0,0,0-.27,1.446l3.221,10.8H86.9L85.854,3.355h5.469A1.658,1.658,0,0,0,93,1.712,1.658,1.658,0,0,0,91.323.071h-12a4.706,4.706,0,0,0-4.747,4.653,1.675,1.675,0,0,0,3.349,0,1.386,1.386,0,0,1,1.4-1.369h3.166L83.663,14.1,72.516,25.9a31.2,31.2,0,0,0-19.787-7.035,1.642,1.642,0,1,0,0,3.283,27.842,27.842,0,0,1,17.508,6.165l-1.5,1.589a25.531,25.531,0,0,0-39.5,10.043h3.641a22.173,22.173,0,0,1,33.578-7.625l-7.2,7.625h4.565L68.9,34.564a21.446,21.446,0,0,1,3.665,5.386h3.687a24.81,24.81,0,0,0-5.067-7.8l1.5-1.591a27.249,27.249,0,0,1,2.866,3.5,1.7,1.7,0,0,0,2.325.441,1.627,1.627,0,0,0,.453-2.283,30.519,30.519,0,0,0-3.365-4.069l9.176-9.716L86.5,39.949h3.37L87.265,16.186h31.183L96.011,39.949h4.568l21-22.236.926,3.112c-.116.038-.235.077-.35.118a1.635,1.635,0,0,0-1.006,2.1,1.689,1.689,0,0,0,2.149.984c.049-.018.1-.032.149-.051l.546,1.837a25.245,25.245,0,0,0-14.8,14.131h3.687a21.919,21.919,0,0,1,12.062-10.965L128.2,39.949h3.489l-3.545-11.892a22.424,22.424,0,0,1,4.564-.468,22.021,22.021,0,0,1,19.855,12.36h3.641a25.336,25.336,0,0,0-23.5-15.646,25.855,25.855,0,0,0-5.5.592l-.544-1.831a27.939,27.939,0,0,1,22.231,4.493" transform="translate(16.629 0)" fill="#fda940"/><path d="M72.816,28.153,73.96,25.2h1.6a1.642,1.642,0,1,0,0-3.284H69.418a1.642,1.642,0,1,0,0,3.284h.959l-1.144,2.958Z" transform="translate(38.533 11.794)" fill="#fda940"/><path d="M0,0H218.7" transform="translate(0 41.893)" fill="none" stroke="#fda940" stroke-width="3"/><path d="M0,0H67.479" transform="translate(0 86.856)" fill="none" stroke="#fda940" stroke-width="3"/><line x2="130.31" transform="translate(88.386 86.856)" fill="none" stroke="#fda940" stroke-miterlimit="10" stroke-width="3"/></g></svg>