<svg xmlns="http://www.w3.org/2000/svg" xmlns:xlink="http://www.w3.org/1999/xlink" width="144.696" height="60.163" viewBox="0 0 144.696 60.163"><defs><clipPath id="a"><rect width="144.696" height="60.163" fill="#fff"/></clipPath></defs><g clip-path="url(#a)"><path d="M38.263,31.318l-.872-1.37a43.93,43.93,0,0,0-15.07,15.413c-.156-7.753-3.332-15.413-10.4-15.413-3.954,0-7.193,2.024-8.22,5.574-1.775,6.133,2.739,9.5,6.009,8.967l.529-1.649c-2.8.279-5.854-2.586-4.671-6.7.778-2.739,3.239-3.86,5.667-3.86a6.559,6.559,0,0,1,5.885,3.706l-3.052,8.968c-1.214,3.58-3.269,4.919-5.076,4.919A3.373,3.373,0,0,1,7,49.253L5.848,51.526a6.067,6.067,0,0,0,2.959.965c2.926,0,5.106-1.837,6.881-7.037l2.46-7.161c1.339,3.986,1.4,9.309.654,13.825h2.086a45.3,45.3,0,0,1,10.119-15.2l-5.23,15.2h3.082l6.508-18.931a31.888,31.888,0,0,1,2.9-1.868" transform="translate(0.125 1.137)" fill="#fff"/><path d="M67.819,40.508c-1.4,0-2.709.9-4.079,2.678l.81-2.367h-2.74l-1.9,5.528A14.062,14.062,0,0,1,54.865,50.5l.374-1,2.989-8.688h-2.74l-.529,1.495a2.559,2.559,0,0,0-2.647-1.806c-2.553,0-5.231,2.149-6.321,5.138a6.336,6.336,0,0,0-.358,1.61c-1.179,1.31-2.575,2.313-3.472,2.313-.4,0-.716-.218-.467-.964l2.678-7.785h-2.74L41.2,42.065a2.584,2.584,0,0,0-2.553-1.557c-2.553,0-5.231,2.242-6.351,5.387-1.059,2.989.062,6.133,2.833,6.133A4.444,4.444,0,0,0,38.7,49.943c-.092,1.339.5,2.085,1.681,2.085,1.79,0,3.773-1.4,5.371-3.083a3.049,3.049,0,0,0,3.036,2.522,4.9,4.9,0,0,0,3.643-1.836l-.467,1.4L51.6,52.061c-3.424,1.525-4.7,2.211-5.137,3.456a1.744,1.744,0,0,0,1.805,2.429c2.335,0,4.173-1.744,5.854-5.575a19.593,19.593,0,0,0,4.809-3.144l-.854,2.491h2.74l1.931-5.6c1.713-2.616,2.927-3.145,3.488-3.145.467,0,.716.467.467,1.277a6.411,6.411,0,0,1-1.432,2.242H66.6a7.341,7.341,0,0,0,2.585-3.27c.467-1.464.031-2.709-1.37-2.709M39.233,47.826a3.643,3.643,0,0,1-2.739,1.743c-1.619,0-2.149-1.587-1.4-3.891.592-1.775,1.931-3.27,3.643-3.27A1.744,1.744,0,0,1,40.572,43.9Zm9.248,8.906c-.467,0-.9-.281-.623-1,.28-.748,1.526-1.308,3.052-1.963-.747,1.713-1.557,2.959-2.429,2.959m4.8-9.528a4.376,4.376,0,0,1-3.052,1.868c-1.619,0-2.116-1.5-1.4-3.643a4.057,4.057,0,0,1,3.581-3.02c1.059,0,1.713.56,1.9,1.868Z" transform="translate(1.211 1.537)" fill="#fff"/><path d="M137.8,45.658c-1.121-2.428-.965-4.2-.062-5.261h-2.086c-1.214,2.055-2.553,4.079-3.83,5.915h0c-1.277,1.9-3.332,3.643-4.515,3.643-.4,0-.716-.218-.467-.965l2.678-7.785h-2.74l-.436,1.247a2.583,2.583,0,0,0-2.552-1.557c-2.553,0-5.232,2.242-6.352,5.387a6.926,6.926,0,0,0-.338,1.441c-1.164,1.27-2.52,2.233-3.4,2.233-.374,0-.778-.248-.5-1l1.9-5.137c.467-1.278.436-2.927-1.277-2.927-1.682,0-3.519,1.152-5.076,3.424l4.827-14.011h-2.74l-5.648,16.4c-1.282,1.737-3.127,3.243-4.255,3.243-.374,0-.747-.248-.467-1l1.9-5.137c.467-1.278.436-2.927-1.277-2.927-1.681,0-3.519,1.183-5.107,3.456l1.09-3.146h-2.74l-1.9,5.528c-1.28,1.727-3.114,3.222-4.208,3.222-.4,0-.716-.248-.467-1l2.678-7.754H87.7l-1.9,5.533c-1.28,1.725-3.11,3.217-4.2,3.217-.406,0-.716-.218-.468-.965l6.415-18.682H84.8L79.2,46.624a8.64,8.64,0,0,1-6.009,3.332,2.459,2.459,0,0,1-2.522-1.308c3.237-.654,5.853-2.521,6.507-4.39A2.363,2.363,0,0,0,74.746,40.9c-3.02,0-5.667,2.242-6.788,5.387-1.059,2.989.28,6.133,3.891,6.133,2.219,0,4.571-1.292,6.437-3-.441,1.891.1,3,1.535,3,1.675,0,3.52-1.232,5.061-2.769-.351,1.754.188,2.769,1.57,2.769,1.634,0,3.427-1.17,4.943-2.651l-.8,2.34h2.74l1.495-4.39c2.367-3.892,3.8-4.359,4.235-4.359.4,0,.654.343.374,1.089l-1.526,4.11c-.934,2.492-.374,3.861,1.277,3.861,1.635,0,3.43-1.172,4.949-2.655l-.808,2.344h2.74l1.526-4.421c2.335-3.861,3.768-4.328,4.2-4.328.4,0,.654.343.374,1.089l-1.526,4.11c-.934,2.492-.374,3.861,1.277,3.861,1.729,0,3.638-1.312,5.206-2.915a3.19,3.19,0,0,0,3.138,2.915,4.446,4.446,0,0,0,3.582-2.086c-.093,1.339.5,2.086,1.68,2.086,1.629,0,3.416-1.16,4.928-2.634a4.278,4.278,0,0,0,4.165,2.634c2.367,0,4.079-1.246,4.079-3.456a8.206,8.206,0,0,0-.9-3.3m-67.041.406c.5-1.527,1.931-3.4,3.3-3.4,1.527,0,1.121,3.55-3.549,4.546a5.482,5.482,0,0,1,.249-1.151m53.619,2.148a3.641,3.641,0,0,1-2.739,1.744c-1.619,0-2.149-1.587-1.4-3.891.591-1.775,1.93-3.27,3.642-3.27a1.744,1.744,0,0,1,1.837,1.495Zm9.249,1.744a2.044,2.044,0,0,1-2.075-1.348c.362-.426.7-.856.993-1.279.078-.106.152-.208.21-.3,1.028-1.464,1.4-2.025,1.993-2.958a8.4,8.4,0,0,0,.685,2.334,4.149,4.149,0,0,1,.4,1.588,1.955,1.955,0,0,1-2.211,1.962" transform="translate(2.566 1.15)" fill="#fff"/><path d="M88.466,37.972l1.735.957L89.87,36.9l1.405-1.437-1.945-.291-.865-1.849-.871,1.849-1.942.295,1.405,1.437-.332,2.027Z" transform="translate(3.252 1.265)" fill="#fff"/><path d="M108.4,18.6a1.108,1.108,0,0,0,1.3-1.794,20.414,20.414,0,0,0-16.634-3.37L89.793,2.217h9.453a2.618,2.618,0,1,1,0,5.237H97.258a1.108,1.108,0,0,0,0,2.215h1.988a4.834,4.834,0,1,0,0-9.669H88.315A1.11,1.11,0,0,0,87.25,1.419l2.131,7.288H67.389L66.7,2.264h3.618a1.108,1.108,0,1,0,0-2.216H62.373a3.144,3.144,0,0,0-3.141,3.14,1.108,1.108,0,1,0,2.216,0,.926.926,0,0,1,.925-.924h2.095l.778,7.248-7.375,7.966A20.4,20.4,0,0,0,44.78,12.732a1.108,1.108,0,1,0,0,2.215,18.2,18.2,0,0,1,11.584,4.16l-.993,1.072a16.722,16.722,0,0,0-26.135,6.777h2.409a14.51,14.51,0,0,1,22.217-5.145L49.1,26.956h3.02l3.364-3.634a14.488,14.488,0,0,1,2.425,3.634h2.439a16.779,16.779,0,0,0-3.353-5.264l.991-1.073a18.318,18.318,0,0,1,1.9,2.359,1.109,1.109,0,0,0,1.838-1.242,20.509,20.509,0,0,0-2.226-2.745l6.071-6.556,1.563,14.521h2.23L67.629,10.921H88.261L73.416,26.956h3.023l13.892-15,.612,2.1c-.077.026-.156.052-.231.08a1.109,1.109,0,1,0,.757,2.084c.032-.012.065-.022.1-.034l.361,1.239a16.851,16.851,0,0,0-9.8,9.535h2.439a14.611,14.611,0,0,1,7.981-7.4l2.162,7.4h2.308l-2.346-8.024a14.528,14.528,0,0,1,16.156,8.024h2.409A16.734,16.734,0,0,0,94.055,16.8l-.36-1.235A18.2,18.2,0,0,1,108.4,18.6" transform="translate(1.11 0)" fill="#fff"/><path d="M71.1,26.123l.757-2h1.06a1.108,1.108,0,0,0,0-2.216H68.852a1.108,1.108,0,0,0,0,2.216h.634l-.757,2Z" transform="translate(2.572 0.831)" fill="#fff"/><line x2="144.696" transform="translate(0 28.267)" fill="none" stroke="#fff" stroke-miterlimit="10" stroke-width="3"/><path d="M0,0H44.646" transform="translate(0 58.607)" fill="none" stroke="#fff" stroke-width="3"/><line x2="86.217" transform="translate(58.479 58.607)" fill="none" stroke="#fff" stroke-miterlimit="10" stroke-width="3"/></g></svg>